<svg width="24" height="25" viewBox="0 0 24 25" fill="none" xmlns="http://www.w3.org/2000/svg">
<path d="M4.33333 3.33334L0 8.00001L4.33333 11.6667V3.33334Z" fill="#09B162"/>
<path d="M19.6667 3.33334L24 8.00001L19.6667 11.6667V3.33334Z" fill="#09B162"/>
<path d="M4.33337 7C4.33337 4.79086 6.12423 3 8.33337 3H14.6667C17.4281 3 19.6667 5.23858 19.6667 8V20C19.6667 22.7614 17.4281 25 14.6667 25H9.33337C6.57195 25 4.33337 22.7614 4.33337 20V7Z" fill="#09B363"/>
<path d="M14 0H9.33337V6H14V0Z" fill="#036235"/>
<path d="M4.33337 3.66666H19.6667V18.6667C19.6667 21.4281 17.4281 23.6667 14.6667 23.6667H9.33337C6.57195 23.6667 4.33337 21.4281 4.33337 18.6667V3.66666Z" fill="#9BDFBF"/>
<path d="M7.66671 2C6.06671 2 4.77782 2.88889 4.33337 3.33333V6.66667H11.6667L10.6667 2.66667C10 2.66667 9.26671 2 7.66671 2Z" fill="#9BDFBF"/>
<path d="M16.3333 2C17.9333 2 19.2222 2.88889 19.6666 3.33333V6.66667H12.3333L12.6666 2.33333C13.3333 2.33333 14.7333 2 16.3333 2Z" fill="#9BDFBF"/>
<path d="M9.33329 5.66667L11.6666 3.66667L9.33329 0L7.66663 2L9.33329 5.66667Z" fill="#09B162"/>
<path d="M14 5.66667L11.6666 3.66667L14 0L15.6666 2L14 5.66667Z" fill="#09B162"/>
</svg>
