<svg width="25" height="24" viewBox="0 0 25 24" fill="none" xmlns="http://www.w3.org/2000/svg">
<path d="M12.4675 14.961V9.35064L24 8.41557V3.42856H0.935059" stroke="#036235" stroke-linecap="round" stroke-linejoin="round"/>
<path d="M10.5974 13.7143H14.3377V21.8182C14.3377 22.851 13.5004 23.6883 12.4675 23.6883C11.4347 23.6883 10.5974 22.851 10.5974 21.8182V13.7143Z" fill="#09B162"/>
<rect y="1.24677" width="3.11688" height="4.36364" rx="1" fill="#09B162"/>
<path d="M3.11682 12.1558V5.92207L10.2857 5.61038V11.8441C10.2857 12.0519 10.0363 12.4675 9.0389 12.4675C8.0415 12.4675 7.58435 12.0519 7.48046 11.8441V9.66233H6.2337V12.1558C6.12981 12.4675 5.67267 13.0909 4.67526 13.0909C3.67786 13.0909 3.22072 12.4675 3.11682 12.1558Z" fill="#FFC200"/>
<path d="M4.67526 13.7143C5.8513 15.5844 7.49775 19.3247 4.67526 19.3247C1.85277 19.3247 3.49923 15.5844 4.67526 13.7143Z" fill="#FFC200"/>
<rect x="1.87012" width="20.5714" height="6.85714" rx="2" fill="#9BDFBF"/>
</svg>
