<svg width="24" height="25" viewBox="0 0 24 25" fill="none" xmlns="http://www.w3.org/2000/svg">
<rect x="0.494141" y="2.37177" width="2.22442" height="21.7803" rx="1.11221" transform="rotate(-45 0.494141 2.37177)" fill="#9BDFBF"/>
<rect x="4.7771" y="15.3406" width="12.3618" height="4.588" transform="rotate(-45 4.7771 15.3406)" fill="#036235"/>
<path fill-rule="evenodd" clip-rule="evenodd" d="M19.939 0.471495L16.4274 4.07074L19.7113 7.27474L23.2251 3.67333C23.4105 4.18067 23.521 4.72523 23.5424 5.29413C23.6527 8.21801 21.3719 10.6777 18.448 10.788C15.5241 10.8983 13.0644 8.61749 12.9541 5.69362C12.8438 2.76974 15.1247 0.310048 18.0485 0.199734C18.7097 0.174789 19.3471 0.272113 19.939 0.471495Z" fill="#09B162"/>
<circle cx="4.70925" cy="18.4443" r="3.20925" stroke="#09B162" stroke-width="3"/>
<path d="M12.4565 16.118L16.0209 12.5536L22.2179 18.7505C23.2021 19.7348 23.2021 21.3306 22.2179 22.3149C21.2336 23.2991 19.6377 23.2991 18.6535 22.3149L12.4565 16.118Z" fill="#FFC200"/>
<rect x="11.1844" y="16.3754" width="7.06388" height="1.57636" rx="0.788178" transform="rotate(-45 11.1844 16.3754)" fill="#30334F"/>
<rect x="14.7164" y="17.0946" width="0.588656" height="5.88657" rx="0.294328" transform="rotate(-45 14.7164 17.0946)" fill="#30334F"/>
<rect x="15.8937" y="16.506" width="0.588656" height="5.88657" rx="0.294328" transform="rotate(-45 15.8937 16.506)" fill="#30334F"/>
<rect x="16.4824" y="15.3287" width="0.588656" height="5.88657" rx="0.294328" transform="rotate(-45 16.4824 15.3287)" fill="#30334F"/>
</svg>
